<svg version="1.1" xmlns="http://www.w3.org/2000/svg" xmlns:xlink="http://www.w3.org/1999/xlink" x="0px" y="0px"
		width="599.063px" height="65px" viewBox="0 0 599.063 54.011" enable-background="new 0 0 599.063 54.011"
		xml:space="preserve">
<g opacity="0.4">
	<path fill-rule="evenodd" clip-rule="evenodd" fill="none" stroke="#FFFFFF" stroke-miterlimit="10" d="M407.542,0.563h6
		c1.657,0,3,1.343,3,3v43c0,1.657-1.343,3-3,3h-6c-1.657,0-3-1.343-3-3v-43C404.542,1.906,405.885,0.563,407.542,0.563z"/>
	<path fill-rule="evenodd" clip-rule="evenodd" fill="none" stroke="#FFFFFF" stroke-miterlimit="10" d="M394.542,7.563h6
		c1.657,0,3,1.343,3,3v36c0,1.657-1.343,3-3,3h-6c-1.657,0-3-1.343-3-3v-36C391.542,8.906,392.885,7.563,394.542,7.563z"/>
	<path fill-rule="evenodd" clip-rule="evenodd" fill="none" stroke="#FFFFFF" stroke-miterlimit="10" d="M368.542,2.563h6
		c1.657,0,3,1.343,3,3v41c0,1.657-1.343,3-3,3h-6c-1.657,0-3-1.343-3-3v-41C365.542,3.906,366.885,2.563,368.542,2.563z"/>
	<path fill-rule="evenodd" clip-rule="evenodd" fill="none" stroke="#FFFFFF" stroke-miterlimit="10" d="M381.542,3.563h6
		c1.657,0,3,1.343,3,3v40c0,1.657-1.343,3-3,3h-6c-1.657,0-3-1.343-3-3v-40C378.542,4.906,379.885,3.563,381.542,3.563z"/>
	<path fill-rule="evenodd" clip-rule="evenodd" fill="none" stroke="#FFFFFF" stroke-miterlimit="10" d="M355.542,11.563h6
		c1.657,0,3,1.343,3,3v32c0,1.657-1.343,3-3,3h-6c-1.657,0-3-1.343-3-3v-32C352.542,12.906,353.885,11.563,355.542,11.563z"/>
	<path fill-rule="evenodd" clip-rule="evenodd" fill="none" stroke="#FFFFFF" stroke-miterlimit="10" d="M342.542,0.563h6
		c1.657,0,3,1.343,3,3v43c0,1.657-1.343,3-3,3h-6c-1.657,0-3-1.343-3-3v-43C339.542,1.906,340.885,0.563,342.542,0.563z"/>
	<path fill-rule="evenodd" clip-rule="evenodd" fill="none" stroke="#FFFFFF" stroke-miterlimit="10" d="M316.542,3.563h6
		c1.657,0,3,1.343,3,3v40c0,1.657-1.343,3-3,3h-6c-1.657,0-3-1.343-3-3v-40C313.542,4.906,314.885,3.563,316.542,3.563z"/>
	<path fill-rule="evenodd" clip-rule="evenodd" fill="none" stroke="#FFFFFF" stroke-miterlimit="10" d="M329.542,6.379h6
		c1.657,0,3,1.343,3,3v37.184c0,1.657-1.343,3-3,3h-6c-1.657,0-3-1.343-3-3V9.379C326.542,7.722,327.885,6.379,329.542,6.379z"/>
	<path fill-rule="evenodd" clip-rule="evenodd" fill="none" stroke="#FFFFFF" stroke-miterlimit="10" d="M303.542,0.563h6
		c1.657,0,3,1.343,3,3v43c0,1.657-1.343,3-3,3h-6c-1.657,0-3-1.343-3-3v-43C300.542,1.906,301.885,0.563,303.542,0.563z"/>
	<path fill-rule="evenodd" clip-rule="evenodd" fill="none" stroke="#FFFFFF" stroke-miterlimit="10" d="M290.542,7.563h6
		c1.657,0,3,1.343,3,3v36c0,1.657-1.343,3-3,3h-6c-1.657,0-3-1.343-3-3v-36C287.542,8.906,288.885,7.563,290.542,7.563z"/>
	<path fill-rule="evenodd" clip-rule="evenodd" fill="none" stroke="#FFFFFF" stroke-miterlimit="10" d="M264.542,7.563h6
		c1.657,0,3,1.343,3,3v36c0,1.657-1.343,3-3,3h-6c-1.657,0-3-1.343-3-3v-36C261.542,8.906,262.885,7.563,264.542,7.563z"/>
	<path fill-rule="evenodd" clip-rule="evenodd" fill="none" stroke="#FFFFFF" stroke-miterlimit="10" d="M277.542,2.563h6
		c1.657,0,3,1.343,3,3v41c0,1.657-1.343,3-3,3h-6c-1.657,0-3-1.343-3-3v-41C274.542,3.906,275.885,2.563,277.542,2.563z"/>
	<path fill-rule="evenodd" clip-rule="evenodd" fill="none" stroke="#FFFFFF" stroke-miterlimit="10" d="M251.542,0.563h6
		c1.657,0,3,1.343,3,3v43c0,1.657-1.343,3-3,3h-6c-1.657,0-3-1.343-3-3v-43C248.542,1.906,249.885,0.563,251.542,0.563z"/>
	<path fill-rule="evenodd" clip-rule="evenodd" fill="none" stroke="#FFFFFF" stroke-miterlimit="10" d="M238.542,6.563h6
		c1.657,0,3,1.343,3,3v37c0,1.657-1.343,3-3,3h-6c-1.657,0-3-1.343-3-3v-37C235.542,7.906,236.885,6.563,238.542,6.563z"/>
	<path fill-rule="evenodd" clip-rule="evenodd" fill="none" stroke="#FFFFFF" stroke-miterlimit="10" d="M212.542,3.563h6
		c1.657,0,3,1.343,3,3v40c0,1.657-1.343,3-3,3h-6c-1.657,0-3-1.343-3-3v-40C209.542,4.906,210.885,3.563,212.542,3.563z"/>
	<path fill-rule="evenodd" clip-rule="evenodd" fill="none" stroke="#FFFFFF" stroke-miterlimit="10" d="M225.542,6.563h6
		c1.657,0,3,1.343,3,3v37c0,1.657-1.343,3-3,3h-6c-1.657,0-3-1.343-3-3v-37C222.542,7.906,223.885,6.563,225.542,6.563z"/>
	<path fill-rule="evenodd" clip-rule="evenodd" fill="none" stroke="#FFFFFF" stroke-miterlimit="10" d="M3.542,0.563h6
		c1.657,0,3,1.343,3,3v43c0,1.657-1.343,3-3,3h-6c-1.657,0-3-1.343-3-3v-43C0.542,1.906,1.885,0.563,3.542,0.563z"/>
	<path fill-rule="evenodd" clip-rule="evenodd" fill="none" stroke="#FFFFFF" stroke-miterlimit="10" d="M16.542,7.563h6
		c1.657,0,3,1.343,3,3v36c0,1.657-1.343,3-3,3h-6c-1.657,0-3-1.343-3-3v-36C13.542,8.906,14.885,7.563,16.542,7.563z"/>
	<path fill-rule="evenodd" clip-rule="evenodd" fill="none" stroke="#FFFFFF" stroke-miterlimit="10" d="M42.542,2.563h6
		c1.657,0,3,1.343,3,3v41c0,1.657-1.343,3-3,3h-6c-1.657,0-3-1.343-3-3v-41C39.542,3.906,40.885,2.563,42.542,2.563z"/>
	<path fill-rule="evenodd" clip-rule="evenodd" fill="none" stroke="#FFFFFF" stroke-miterlimit="10" d="M29.542,3.563h6
		c1.657,0,3,1.343,3,3v40c0,1.657-1.343,3-3,3h-6c-1.657,0-3-1.343-3-3v-40C26.542,4.906,27.885,3.563,29.542,3.563z"/>
	<path fill-rule="evenodd" clip-rule="evenodd" fill="none" stroke="#FFFFFF" stroke-miterlimit="10" d="M55.542,11.563h6
		c1.657,0,3,1.343,3,3v32c0,1.657-1.343,3-3,3h-6c-1.657,0-3-1.343-3-3v-32C52.542,12.906,53.885,11.563,55.542,11.563z"/>
	<path fill-rule="evenodd" clip-rule="evenodd" fill="none" stroke="#FFFFFF" stroke-miterlimit="10" d="M68.542,0.563h6
		c1.657,0,3,1.343,3,3v43c0,1.657-1.343,3-3,3h-6c-1.657,0-3-1.343-3-3v-43C65.542,1.906,66.885,0.563,68.542,0.563z"/>
	<path fill-rule="evenodd" clip-rule="evenodd" fill="none" stroke="#FFFFFF" stroke-miterlimit="10" d="M94.542,3.563h6
		c1.657,0,3,1.343,3,3v40c0,1.657-1.343,3-3,3h-6c-1.657,0-3-1.343-3-3v-40C91.542,4.906,92.885,3.563,94.542,3.563z"/>
	<path fill-rule="evenodd" clip-rule="evenodd" fill="none" stroke="#FFFFFF" stroke-miterlimit="10" d="M81.542,6.375h6
		c1.657,0,3,1.343,3,3v37.188c0,1.657-1.343,3-3,3h-6c-1.657,0-3-1.343-3-3V9.375C78.542,7.718,79.885,6.375,81.542,6.375z"/>
	<path fill-rule="evenodd" clip-rule="evenodd" fill="none" stroke="#FFFFFF" stroke-miterlimit="10" d="M107.542,0.563h6
		c1.657,0,3,1.343,3,3v43c0,1.657-1.343,3-3,3h-6c-1.657,0-3-1.343-3-3v-43C104.542,1.906,105.885,0.563,107.542,0.563z"/>
	<path fill-rule="evenodd" clip-rule="evenodd" fill="none" stroke="#FFFFFF" stroke-miterlimit="10" d="M120.542,7.563h6
		c1.657,0,3,1.343,3,3v36c0,1.657-1.343,3-3,3h-6c-1.657,0-3-1.343-3-3v-36C117.542,8.906,118.885,7.563,120.542,7.563z"/>
	<path fill-rule="evenodd" clip-rule="evenodd" fill="none" stroke="#FFFFFF" stroke-miterlimit="10" d="M146.542,7.563h6
		c1.657,0,3,1.343,3,3v36c0,1.657-1.343,3-3,3h-6c-1.657,0-3-1.343-3-3v-36C143.542,8.906,144.885,7.563,146.542,7.563z"/>
	<path fill-rule="evenodd" clip-rule="evenodd" fill="none" stroke="#FFFFFF" stroke-miterlimit="10" d="M133.542,2.563h6
		c1.657,0,3,1.343,3,3v41c0,1.657-1.343,3-3,3h-6c-1.657,0-3-1.343-3-3v-41C130.542,3.906,131.885,2.563,133.542,2.563z"/>
	<path fill-rule="evenodd" clip-rule="evenodd" fill="none" stroke="#FFFFFF" stroke-miterlimit="10" d="M159.542,0.563h6
		c1.657,0,3,1.343,3,3v43c0,1.657-1.343,3-3,3h-6c-1.657,0-3-1.343-3-3v-43C156.542,1.906,157.885,0.563,159.542,0.563z"/>
	<path fill-rule="evenodd" clip-rule="evenodd" fill="none" stroke="#FFFFFF" stroke-miterlimit="10" d="M172.542,6.563h6
		c1.657,0,3,1.343,3,3v37c0,1.657-1.343,3-3,3h-6c-1.657,0-3-1.343-3-3v-37C169.542,7.906,170.885,6.563,172.542,6.563z"/>
	<path fill-rule="evenodd" clip-rule="evenodd" fill="none" stroke="#FFFFFF" stroke-miterlimit="10" d="M198.542,0.563h6
		c1.657,0,3,1.343,3,3v43c0,1.657-1.343,3-3,3h-6c-1.657,0-3-1.343-3-3v-43C195.542,1.906,196.885,0.563,198.542,0.563z"/>
	<path fill-rule="evenodd" clip-rule="evenodd" fill="none" stroke="#FFFFFF" stroke-miterlimit="10" d="M185.542,6.563h6
		c1.657,0,3,1.343,3,3v37c0,1.657-1.343,3-3,3h-6c-1.657,0-3-1.343-3-3v-37C182.542,7.906,183.885,6.563,185.542,6.563z"/>
	<path fill-rule="evenodd" clip-rule="evenodd" fill="none" stroke="#FFFFFF" stroke-miterlimit="10" d="M433.542,2.563h6
		c1.657,0,3,1.343,3,3v41c0,1.657-1.343,3-3,3h-6c-1.657,0-3-1.343-3-3v-41C430.542,3.906,431.884,2.563,433.542,2.563z"/>
	<path fill-rule="evenodd" clip-rule="evenodd" fill="none" stroke="#FFFFFF" stroke-miterlimit="10" d="M420.542,3.563h6
		c1.657,0,3,1.343,3,3v40c0,1.657-1.343,3-3,3h-6c-1.657,0-3-1.343-3-3v-40C417.542,4.906,418.885,3.563,420.542,3.563z"/>
	<path fill-rule="evenodd" clip-rule="evenodd" fill="none" stroke="#FFFFFF" stroke-miterlimit="10" d="M446.542,11.563h6
		c1.657,0,3,1.343,3,3v32c0,1.657-1.343,3-3,3h-6c-1.657,0-3-1.343-3-3v-32C443.542,12.906,444.884,11.563,446.542,11.563z"/>
	<path fill-rule="evenodd" clip-rule="evenodd" fill="none" stroke="#FFFFFF" stroke-miterlimit="10" d="M459.542,0.563h6
		c1.657,0,3,1.343,3,3v43c0,1.657-1.343,3-3,3h-6c-1.657,0-3-1.343-3-3v-43C456.542,1.906,457.884,0.563,459.542,0.563z"/>
	<path fill-rule="evenodd" clip-rule="evenodd" fill="none" stroke="#FFFFFF" stroke-miterlimit="10" d="M485.542,3.563h6
		c1.657,0,3,1.343,3,3v40c0,1.657-1.343,3-3,3h-6c-1.657,0-3-1.343-3-3v-40C482.542,4.906,483.884,3.563,485.542,3.563z"/>
	<path fill-rule="evenodd" clip-rule="evenodd" fill="none" stroke="#FFFFFF" stroke-miterlimit="10" d="M472.542,6.375h6
		c1.657,0,3,1.343,3,3v37.188c0,1.657-1.343,3-3,3h-6c-1.657,0-3-1.343-3-3V9.375C469.542,7.718,470.884,6.375,472.542,6.375z"/>
	<path fill-rule="evenodd" clip-rule="evenodd" fill="none" stroke="#FFFFFF" stroke-miterlimit="10" d="M498.542,0.563h6
		c1.657,0,3,1.343,3,3v43c0,1.657-1.343,3-3,3h-6c-1.657,0-3-1.343-3-3v-43C495.542,1.906,496.884,0.563,498.542,0.563z"/>
	<path fill-rule="evenodd" clip-rule="evenodd" fill="none" stroke="#FFFFFF" stroke-miterlimit="10" d="M511.542,7.563h6
		c1.657,0,3,1.343,3,3v36c0,1.657-1.343,3-3,3h-6c-1.657,0-3-1.343-3-3v-36C508.542,8.906,509.884,7.563,511.542,7.563z"/>
	<path fill-rule="evenodd" clip-rule="evenodd" fill="none" stroke="#FFFFFF" stroke-miterlimit="10" d="M537.542,7.563h6
		c1.657,0,3,1.343,3,3v36c0,1.657-1.343,3-3,3h-6c-1.657,0-3-1.343-3-3v-36C534.542,8.906,535.884,7.563,537.542,7.563z"/>
	<path fill-rule="evenodd" clip-rule="evenodd" fill="none" stroke="#FFFFFF" stroke-miterlimit="10" d="M524.542,2.563h6
		c1.657,0,3,1.343,3,3v41c0,1.657-1.343,3-3,3h-6c-1.657,0-3-1.343-3-3v-41C521.542,3.906,522.884,2.563,524.542,2.563z"/>
	<path fill-rule="evenodd" clip-rule="evenodd" fill="none" stroke="#FFFFFF" stroke-miterlimit="10" d="M550.542,0.563h6
		c1.657,0,3,1.343,3,3v43c0,1.657-1.343,3-3,3h-6c-1.657,0-3-1.343-3-3v-43C547.542,1.906,548.884,0.563,550.542,0.563z"/>
	<path fill-rule="evenodd" clip-rule="evenodd" fill="none" stroke="#FFFFFF" stroke-miterlimit="10" d="M563.542,6.563h6
		c1.657,0,3,1.343,3,3v37c0,1.657-1.343,3-3,3h-6c-1.657,0-3-1.343-3-3v-37C560.542,7.906,561.884,6.563,563.542,6.563z"/>
	<path fill-rule="evenodd" clip-rule="evenodd" fill="none" stroke="#FFFFFF" stroke-miterlimit="10" d="M589.542,0.563h6
		c1.657,0,3,1.343,3,3v43c0,1.657-1.343,3-3,3h-6c-1.657,0-3-1.343-3-3v-43C586.542,1.906,587.884,0.563,589.542,0.563z"/>
	<path fill-rule="evenodd" clip-rule="evenodd" fill="none" stroke="#FFFFFF" stroke-miterlimit="10" d="M576.542,6.563h6
		c1.657,0,3,1.343,3,3v37c0,1.657-1.343,3-3,3h-6c-1.657,0-3-1.343-3-3v-37C573.542,7.906,574.884,6.563,576.542,6.563z"/>
</g>
<g>
	<rect y="52.995" fill-rule="evenodd" clip-rule="evenodd" fill="#ffffff" fill-opacity="0.2" width="599.063" height="1.031"/>
</g>
</svg>