<svg version="1.1" id="Layer_1" xmlns="http://www.w3.org/2000/svg" xmlns:xlink="http://www.w3.org/1999/xlink" x="0px" y="0px"
	 width="11.99px" height="19.978px" viewBox="0 0 11.99 19.978" enable-background="new 0 0 11.99 19.978" xml:space="preserve">
<g>
	<path fill="#2086F8" d="M11.226,0.775v18.168l-4.7-4.697l-0.53-0.53l-0.53,0.53l-4.7,4.695V0.775H11.226 M11.405,0.025H0.584
		c-0.314,0-0.569,0.255-0.569,0.568v18.786c0,0.341,0.28,0.573,0.573,0.573c0.139,0,0.281-0.053,0.397-0.171l5.009-5.005
		l5.008,5.005c0.116,0.119,0.258,0.172,0.397,0.172c0.293,0,0.575-0.234,0.575-0.574V0.593C11.976,0.28,11.718,0.025,11.405,0.025
		L11.405,0.025z"/>
</g>
</svg>
