<?xml version="1.0" encoding="utf-8"?>
<!-- Generator: Adobe Illustrator 16.0.0, SVG Export Plug-In . SVG Version: 6.00 Build 0)  -->
<!DOCTYPE svg PUBLIC "-//W3C//DTD SVG 1.1//EN" "http://www.w3.org/Graphics/SVG/1.1/DTD/svg11.dtd">
<svg version="1.1" id="Layer_1" xmlns="http://www.w3.org/2000/svg" xmlns:xlink="http://www.w3.org/1999/xlink" x="0px" y="0px"
	 width="23px" height="6px" viewBox="0 0 23 6" enable-background="new 0 0 23 6" xml:space="preserve">
<path d="M11.5,0C9.856,0,8.519,1.346,8.519,3S9.856,6,11.5,6c1.645,0,2.981-1.346,2.981-3S13.145,0,11.5,0z M20.019,0
	c-1.644,0-2.981,1.346-2.981,3s1.338,3,2.981,3S23,4.654,23,3S21.662,0,20.019,0z M2.981,0C1.337,0,0,1.346,0,3s1.337,3,2.981,3
	s2.981-1.346,2.981-3S4.625,0,2.981,0z"/>
</svg>
