<?xml version="1.0" encoding="utf-8"?>
<!-- Generator: Adobe Illustrator 16.0.0, SVG Export Plug-In . SVG Version: 6.00 Build 0)  -->
<!DOCTYPE svg PUBLIC "-//W3C//DTD SVG 1.1//EN" "http://www.w3.org/Graphics/SVG/1.1/DTD/svg11.dtd">
<svg version="1.1" id="Layer_1" xmlns="http://www.w3.org/2000/svg" xmlns:xlink="http://www.w3.org/1999/xlink" x="0px" y="0px"
	 width="25px" height="5px" viewBox="0 0 25 5" enable-background="new 0 0 25 5" xml:space="preserve">
<path fill-rule="evenodd" clip-rule="evenodd" d="M22.5,0C23.881,0,25,1.119,25,2.5C25,3.88,23.881,5,22.5,5S20,3.88,20,2.5
	C20,1.119,21.119,0,22.5,0z"/>
<path fill-rule="evenodd" clip-rule="evenodd" d="M12.5,0C13.881,0,15,1.119,15,2.5C15,3.88,13.881,5,12.5,5S10,3.88,10,2.5
	C10,1.119,11.119,0,12.5,0z"/>
<path fill-rule="evenodd" clip-rule="evenodd" d="M2.5,0C3.881,0,5,1.119,5,2.5C5,3.88,3.881,5,2.5,5S0,3.88,0,2.5
	C0,1.119,1.119,0,2.5,0z"/>
</svg>
