<?xml version="1.0" encoding="utf-8"?>
<!-- Generator: Adobe Illustrator 16.0.0, SVG Export Plug-In . SVG Version: 6.00 Build 0)  -->
<!DOCTYPE svg PUBLIC "-//W3C//DTD SVG 1.1//EN" "http://www.w3.org/Graphics/SVG/1.1/DTD/svg11.dtd">
<svg version="1.1" id="Layer_1" xmlns="http://www.w3.org/2000/svg" xmlns:xlink="http://www.w3.org/1999/xlink" x="0px" y="0px"
	 width="5px" height="25px" viewBox="10 -10 5 25" enable-background="new 10 -10 5 25" xml:space="preserve">
<path d="M15,12.5c0,1.381-1.119,2.5-2.5,2.5c-1.38,0-2.5-1.119-2.5-2.5s1.12-2.5,2.5-2.5C13.881,10,15,11.119,15,12.5z"/>
<path d="M15,2.5C15,3.881,13.881,5,12.5,5C11.12,5,10,3.881,10,2.5S11.12,0,12.5,0C13.881,0,15,1.119,15,2.5z"/>
<path d="M15-7.5C15-6.119,13.881-5,12.5-5C11.12-5,10-6.119,10-7.5s1.12-2.5,2.5-2.5C13.881-10,15-8.881,15-7.5z"/>
</svg>
