<?xml version="1.0" encoding="utf-8"?>
<!-- Generator: Adobe Illustrator 16.0.0, SVG Export Plug-In . SVG Version: 6.00 Build 0)  -->
<!DOCTYPE svg PUBLIC "-//W3C//DTD SVG 1.1//EN" "http://www.w3.org/Graphics/SVG/1.1/DTD/svg11.dtd">
<svg version="1.1" id="Layer_1" xmlns="http://www.w3.org/2000/svg" xmlns:xlink="http://www.w3.org/1999/xlink" x="0px" y="0px"
	 width="23.995px" height="23.995px" viewBox="0 0 23.995 23.995" enable-background="new 0 0 23.995 23.995" xml:space="preserve">
<path d="M21.207,4.932c0.211,0.275,0.146,0.684-0.32,1.042L3.938,18.978C3.471,19.335,3,19.339,2.788,19.063
	c-0.211-0.275-0.085-0.73,0.381-1.088L20.118,4.971C20.584,4.614,20.995,4.656,21.207,4.932z M23.891,13.563
	c-0.865,6.57-6.89,11.192-13.46,10.328c-6.57-0.865-11.192-6.89-10.327-13.46c0.865-6.57,6.89-11.192,13.46-10.327
	S24.756,6.994,23.891,13.563z M22.639,13.399c0.773-5.869-3.372-11.27-9.24-12.043c-5.868-0.773-11.27,3.372-12.043,9.24
	c-0.773,5.869,3.372,11.271,9.24,12.043C16.465,23.412,21.866,19.267,22.639,13.399z"/>
</svg>
