<svg version="1.1" id="Layer_1" xmlns="http://www.w3.org/2000/svg" xmlns:xlink="http://www.w3.org/1999/xlink" x="0px" y="0px"
	 width="27px" height="27px" viewBox="0 0 27 27" enable-background="new 0 0 27 27" xml:space="preserve">
<g>
	<g>
		<path d="M25.073,0h-4.695l-0.001,16.302h4.586c1.063,0,2.037-0.767,2.037-1.837V1.929C27,0.863,26.145,0,25.073,0z M23.143,4.821
			c-0.533,0-0.965-0.431-0.965-0.964s0.432-0.965,0.965-0.965c0.532,0,0.964,0.432,0.964,0.965S23.675,4.821,23.143,4.821z
			 M3.857,2.411c0,0.542,0.179,1.043,0.48,1.446c-1.331,0.005-2.409,1.073-2.409,2.41c0,0.613,0.228,1.174,0.605,1.599
			c-0.917,0.341-1.57,1.218-1.57,2.259c0,0.613,0.229,1.174,0.605,1.598C0.652,12.064,0,12.941,0,13.981
			c0,1.332,1.075,2.411,2.418,2.411h5.778C7.186,21.23,7.669,27,11.572,27c3.9,0,1.863-4.617,3.375-7.485
			c1.51-2.869,4.115-3.207,4.115-3.207V0H6.275C4.94,0,3.857,1.069,3.857,2.411z"/>
	</g>
</g>
</svg>
