<svg version="1.1" id="Layer_1" xmlns="http://www.w3.org/2000/svg" xmlns:xlink="http://www.w3.org/1999/xlink" x="0px" y="0px"
	 width="27px" height="27px" viewBox="0 0 27 27" enable-background="new 0 0 27 27" xml:space="preserve">
<g>
	<g>
		<path d="M0,12.536v12.536C0,26.137,0.855,27,1.927,27h4.696V10.698H2.038C0.974,10.698,0,11.465,0,12.536z M3.856,22.179
			c0.533,0,0.965,0.431,0.965,0.964s-0.432,0.965-0.965,0.965c-0.532,0-0.963-0.432-0.963-0.965S3.325,22.179,3.856,22.179z
			 M27,13.018c0-1.332-1.075-2.411-2.418-2.411h-5.778C19.814,5.77,19.331,0,15.428,0c-3.901,0-1.864,4.617-3.375,7.485
			c-1.511,2.869-4.115,3.207-4.115,3.207V27h12.786c1.335,0,2.418-1.069,2.418-2.411c0-0.542-0.179-1.043-0.48-1.446
			c1.331-0.005,2.409-1.073,2.409-2.41c0-0.613-0.228-1.174-0.605-1.599c0.917-0.341,1.57-1.218,1.57-2.259
			c0-0.613-0.229-1.174-0.605-1.598C26.347,14.936,27,14.059,27,13.018z"/>
	</g>
</g>
</svg>
