<?xml version="1.0" encoding="utf-8"?>
<!-- Generator: Adobe Illustrator 16.0.0, SVG Export Plug-In . SVG Version: 6.00 Build 0)  -->
<!DOCTYPE svg PUBLIC "-//W3C//DTD SVG 1.1//EN" "http://www.w3.org/Graphics/SVG/1.1/DTD/svg11.dtd">
<svg version="1.1" id="Layer_1" xmlns="http://www.w3.org/2000/svg" xmlns:xlink="http://www.w3.org/1999/xlink" x="0px" y="0px"
	 width="528.002px" height="527.999px" viewBox="0 0 528.002 527.999" enable-background="new 0 0 528.002 527.999"
	 xml:space="preserve">
<path fill="#E2E3E7" d="M264.001,0C118.177,0,0,118.174,0,263.999s118.177,264,264.001,264c145.826,0,264.001-118.176,264.001-264
	S409.827,0,264.001,0z"/>
<path fill="#FFFFFF" d="M415.723,145.748c-5.955-5.918-15.13-5.874-20.458,0.174L215.133,348.164l-79.39-85.674
	c-5.712-6.146-14.97-6.122-20.649,0.051c-5.689,6.181-5.766,16.25-0.056,22.442l90.176,97.949c2.818,3.139,6.661,4.872,10.625,4.872
	c3.967,0,7.749-1.735,10.531-4.873l190.591-215.506C422.297,161.411,421.693,151.68,415.723,145.748z"/>
</svg>
